<svg xmlns="http://www.w3.org/2000/svg" xmlns:xlink="http://www.w3.org/1999/xlink" viewBox="0 0 47.4051 56.6929"><defs><style>.cls-1{fill:#fff;}.cls-2{fill:url(#linear-gradient);}</style><linearGradient id="linear-gradient" x1="13.4818" y1="42.815" x2="30.3401" y2="18.3921" gradientUnits="userSpaceOnUse"><stop offset="0" stop-color="#fff" stop-opacity="0.2"/><stop offset="0.1597" stop-color="#fff" stop-opacity="0.3048"/><stop offset="0.503" stop-color="#fff" stop-opacity="0.5736"/><stop offset="1" stop-color="#fff"/></linearGradient></defs><g id="Layer_2" data-name="Layer 2"><g id="Artwork"><path class="cls-1" d="M29.1364,48.4243H17.465a.9438.9438,0,1,0,0,1.8876H29.1364a.9438.9438,0,0,0,0-1.8876Z"/><path class="cls-1" d="M29.1364,51.6151H17.465a.9438.9438,0,0,0,0,1.8876H29.1364a.9438.9438,0,1,0,0-1.8876Z"/><path class="cls-1" d="M29.1364,54.8053H17.465a.9438.9438,0,1,0,0,1.8876H29.1364a.9438.9438,0,0,0,0-1.8876Z"/><path class="cls-1" d="M23.4147,8.9316a.9441.9441,0,0,0,.9438-.9438V.9438a.9438.9438,0,0,0-1.8876,0v7.044A.9441.9441,0,0,0,23.4147,8.9316Z"/><path class="cls-1" d="M11.2665,3.94a.9439.9439,0,0,0-1.6356.9426l3.517,6.1039a.9439.9439,0,0,0,1.6357-.9426Z"/><path class="cls-1" d="M7.511,16.6078,1.417,13.0754a.9438.9438,0,1,0-.9463,1.6332L6.5648,18.241a.9437.9437,0,1,0,.9462-1.6332Z"/><path class="cls-1" d="M37.4271,3.6387a.9437.9437,0,0,0-1.2891.3466l-3.5165,6.1039a.9439.9439,0,0,0,1.6357.9425l3.5164-6.1039A.9444.9444,0,0,0,37.4271,3.6387Z"/><path class="cls-1" d="M47.2778,13.4637a.9446.9446,0,0,0-1.29-.3435l-6.0946,3.5331a.9437.9437,0,1,0,.9462,1.6332l6.0947-3.5331A.9439.9439,0,0,0,47.2778,13.4637Z"/><path class="cls-2" d="M28.2792,29.2205,24.1634,45.8858H22.5317l-3.9644-16.583a.4969.4969,0,0,1,.7828-.478l4.0646,2.7859L27.4872,28.82a.4815.4815,0,0,1,.5469-.0148A.4668.4668,0,0,1,28.2792,29.2205ZM22.6961,13.6972a14.558,14.558,0,0,0-8.087,26.1343,7.6268,7.6268,0,0,1,3.0783,6.0536v.0007H20.591l-3.8744-16.22a2.3829,2.3829,0,0,1,3.7076-2.3933l2.9905,2.05,2.9985-2.0547A2.3842,2.3842,0,0,1,30.1281,29.59L26.1072,45.8858h3.0353A7.6447,7.6447,0,0,1,32.23,39.8241a14.5581,14.5581,0,0,0-9.5342-26.1269Z"/></g></g></svg>