<?xml version="1.0" encoding="UTF-8"?>
<svg id="Layer_1" data-name="Layer 1" xmlns="http://www.w3.org/2000/svg" xmlns:xlink="http://www.w3.org/1999/xlink" version="1.1" viewBox="0 0 104.3 69.6">
  <defs>
    <style>
      .cls-1 {
        fill: url(#linear-gradient);
      }

      .cls-1, .cls-2, .cls-3 {
        stroke-width: 0px;
      }

      .cls-2 {
        fill: url(#linear-gradient-2);
      }

      .cls-3 {
        fill: #fff;
      }
    </style>
    <linearGradient id="linear-gradient" x1="48.2" y1="333.6" x2="-1.1" y2="292.9" gradientTransform="translate(0 -288.2)" gradientUnits="userSpaceOnUse">
      <stop offset="0" stop-color="#fff"/>
      <stop offset="1" stop-color="#fff" stop-opacity=".2"/>
    </linearGradient>
    <linearGradient id="linear-gradient-2" x1="-2796.1" y1="-5649" x2="-2845.3" y2="-5689.5" gradientTransform="translate(-2740.4 -5624.7) rotate(-180)" xlink:href="#linear-gradient"/>
  </defs>
  <path class="cls-1" d="M50,29.1c0-1.2-.4-2.3-1.1-3.2l-.3-.3.3-.3c.7-.9,1.1-2,1.1-3.2,0-2.6-1.8-4.8-4.4-5.2-.3-.1-.5-.1-.7-.1h-12v-.7c.5-2.3.7-4.6.5-6.8-.5-5.4-3.1-9.1-6.4-9.3h-.7c-2.4,0-3.4.5-3.6.6-.3.2-.5.6-.4.9.4,1.8,1.2,6.7.6,8.4-1,3.1-3.4,6.1-5.6,8.7-1.5,1.9-2.9,3.5-3.5,5-.6,1-.6,2.5-.6,2.5v18.1c0,1.4.9,2.3,1.3,2.6.4.3,1.1.6,1.7.6h25.6c2.7-.3,4.8-2.5,4.8-5.3s0-.8,0-1.2v-.4c0,0,.3-.2.3-.2,1.7-.9,2.8-2.7,2.8-4.7s-.2-1.8-.7-2.6l-.2-.3.2-.3c.7-.9,1.1-2.1,1.1-3.3Z"/>
  <g>
    <path class="cls-3" d="M15.1,46v-21.1c0-.8-.6-1.4-1.4-1.4H0v2h13.2v20H0v2h13.7c.8-.1,1.4-.7,1.4-1.5Z"/>
    <rect class="cls-3" x="8.8" y="41" width="2" height="2"/>
    <rect class="cls-3" x="4.4" y="41" width="2" height="2"/>
  </g>
  <path class="cls-2" d="M53.8,40.6c0,1.2.4,2.3,1.1,3.2l.3.3-.3.3c-.7.9-1.1,2-1.1,3.2,0,2.6,1.8,4.8,4.4,5.2.3,0,.5,0,.7,0h12v.7c-.5,2.3-.7,4.6-.5,6.8.5,5.4,3.1,9.1,6.4,9.2h.7c2.4,0,3.4-.5,3.6-.6.3-.2.5-.6.4-.9-.4-1.8-1.2-6.7-.6-8.3,1-3.1,3.4-6.1,5.6-8.7,1.5-1.9,2.9-3.5,3.5-4.9.6-1,.6-2.5.6-2.5v-18.1c0-1.4-.9-2.3-1.3-2.6-.3-.4-1-.7-1.7-.7h-25.5c-2.7.3-4.7,2.5-4.7,5.3s0,.8,0,1.2v.4c0,0-.3.2-.3.2-1.7.9-2.8,2.7-2.8,4.6s.2,1.8.7,2.6l.2.3-.2.3c-.8,1-1.3,2.2-1.3,3.4Z"/>
  <g>
    <path class="cls-3" d="M89.2,23.7v21c0,.8.6,1.4,1.4,1.4h13.7v-2h-13.2v-20h13.2v-2h-13.7c-.8.2-1.4.8-1.4,1.6Z"/>
    <rect class="cls-3" x="93.6" y="40.2" width="2" height="2"/>
    <rect class="cls-3" x="97.9" y="40.2" width="2" height="2"/>
  </g>
</svg>